<svg width="41" height="40" viewBox="0 0 41 40" fill="none" xmlns="http://www.w3.org/2000/svg">
<path d="M40.499 17.7283C40.499 7.15832 32.4869 -0.198242 20.9693 -0.198242C9.03497 -0.198242 0.855469 8.05963 0.855469 20.1151C0.855469 32.5589 8.81765 40.4499 21.3826 40.4499C24.4535 40.4499 27.3997 40.0117 29.5906 39.2564V36.1856C28.0587 36.8945 24.767 37.3541 21.4325 37.3541C11.0086 37.3541 4.28616 30.6566 4.28616 20.2612C4.28616 10.1294 11.1297 2.87263 20.6523 2.87263C30.3957 2.87263 37.0683 8.88613 37.0683 17.6784C37.0683 23.6705 35.0947 27.5429 32.0238 27.5429C30.271 27.5429 29.2735 26.5454 29.2735 24.8354V10.5463H25.597V13.5174H25.2052C24.2575 11.3977 22.0666 10.0831 19.5052 10.0831C14.5177 10.0831 11.0335 14.2228 11.0335 20.1401C11.0335 26.3281 14.4428 30.4927 19.5087 30.4927C22.3587 30.4927 24.5497 29.1033 25.597 26.6203H25.9889C26.2775 29.0071 28.4933 30.71 31.3433 30.71C36.9436 30.71 40.499 25.6691 40.499 17.7318V17.7283ZM14.9309 20.2363C14.9309 15.9719 16.8547 13.4426 20.1179 13.4426C23.431 13.4426 25.5472 16.0717 25.5472 20.2363C25.5472 24.4008 23.4061 27.0549 20.068 27.0549C16.8796 27.0549 14.9309 24.4721 14.9309 20.2363Z" fill="white"/>
</svg>
