<svg width="169" height="40" viewBox="0 0 169 40" fill="none" xmlns="http://www.w3.org/2000/svg">
<path d="M0 11.4609H4.69284C6.56439 11.4609 7.96107 11.7979 8.91081 12.4437C9.86055 13.1176 10.3354 14.2689 10.3354 15.9536C10.3354 17.1049 10.1958 18.0034 9.88848 18.6773C9.58121 19.3512 9.05048 19.8847 8.2404 20.2497L10.5589 28.5331H6.70406L4.83251 20.8675H3.77103V28.5331H0V11.4609ZM4.80457 18.7054C5.55878 18.7054 6.08952 18.5088 6.39679 18.1157C6.70406 17.7226 6.84372 17.1049 6.84372 16.3186C6.84372 15.5324 6.70406 14.9708 6.42472 14.5777C6.14539 14.1846 5.67051 13.9881 4.97218 13.9881H3.7431V18.7054H4.80457Z" fill="white"/>
<path d="M12.5977 11.4609H20.2515V14.0442H16.3408V18.2842H19.3017V20.8955H16.3408V26.006H20.2794V28.5612H12.5977V11.4609Z" fill="white"/>
<path d="M74.6741 39.4502L71.643 10.4535L165.406 0.549773L168.437 29.5464L74.6741 39.4502Z" stroke="white"/>
<path d="M72.8652 34.6145V5.3855H167.132V34.6145H72.8652Z" stroke="white"/>
<path d="M22.2067 11.4609H26.2291L28.1007 21.401L30.1119 11.4609H33.9946L34.3019 28.5612H31.6482L31.341 17.1891L29.3577 28.5612H26.9833L24.8604 17.0768L24.609 28.5331H21.8994L22.2067 11.4609Z" fill="white"/>
<path d="M37.7093 27.3818C36.9272 26.4271 36.5361 25.0231 36.5361 23.1699V16.824C36.5361 14.9708 36.9272 13.5668 37.7093 12.6402C38.4915 11.7136 39.8044 11.2363 41.648 11.2363C43.4916 11.2363 44.8045 11.7136 45.6145 12.6402C46.3967 13.5949 46.7877 14.9708 46.7877 16.824V23.1699C46.7877 25.0231 46.3967 26.4271 45.6145 27.3818C44.8324 28.3365 43.4916 28.8138 41.648 28.8138C39.8044 28.8138 38.4915 28.3365 37.7093 27.3818ZM42.6815 25.5847C42.8491 25.2197 42.9329 24.7424 42.9329 24.1246V15.8974C42.9329 15.2516 42.8491 14.7742 42.6815 14.4092C42.5139 14.0442 42.1508 13.8757 41.62 13.8757C41.1172 13.8757 40.782 14.0442 40.6144 14.4092C40.4468 14.7742 40.363 15.2516 40.363 15.8693V24.0965C40.363 24.7143 40.4468 25.1916 40.5865 25.5567C40.7541 25.9217 41.0893 26.0902 41.62 26.0902C42.1508 26.1182 42.5139 25.9498 42.6815 25.5847Z" fill="white"/>
<path d="M50.4195 14.2689H47.8496V11.4609H56.7325V14.2689H54.1905V28.5612H50.4195V14.2689Z" fill="white"/>
<path d="M65.9222 26.006V28.5612H58.3242V11.4609H65.8663V14.0161H61.9835V18.2842H64.9445V20.8955H61.9835V26.006H65.9222Z" fill="white"/>
<path d="M82.9062 11.4609H86.6773V18.3684H89.303V11.4609H93.0741V28.5612H89.303V21.064H86.6773V28.5331H82.9062V11.4609Z" fill="white"/>
<path d="M95.6436 11.4609H103.297V14.0442H99.4146V18.2842H102.376V20.8955H99.4146V26.006H103.353V28.5612H95.6715V11.4609H95.6436Z" fill="white"/>
<path d="M105.029 11.4609H108.8V26.006H112.711V28.5612H105.029V11.4609Z" fill="white"/>
<path d="M114.332 11.4609H120.03C121.539 11.4609 122.656 11.8821 123.382 12.7245C124.136 13.5669 124.499 14.8024 124.499 16.4029C124.499 18.228 124.08 19.4916 123.215 20.2216C122.349 20.9236 121.147 21.2887 119.583 21.2887H118.075V28.5612H114.304V11.4609H114.332ZM119.36 18.6492C120.03 18.6492 120.449 18.4807 120.673 18.1157C120.896 17.7507 121.008 17.161 121.008 16.3467C121.008 15.5886 120.896 15.027 120.7 14.662C120.477 14.2969 120.03 14.1004 119.36 14.1004H118.131V18.6492H119.36Z" fill="white"/>
<path d="M126.314 11.4609H133.968V14.0442H130.085V18.2842H133.046V20.8955H130.085V26.006H134.024V28.5612H126.342V11.4609H126.314Z" fill="white"/>
<path d="M135.701 11.4609H140.394C142.265 11.4609 143.662 11.7979 144.612 12.4437C145.561 13.1176 146.036 14.2689 146.036 15.9536C146.036 17.1049 145.897 18.0034 145.589 18.6773C145.282 19.3512 144.751 19.8847 143.941 20.2497L146.26 28.5331H142.377L140.505 20.8675H139.444V28.5331H135.673V11.4609H135.701ZM140.505 18.7054C141.26 18.7054 141.79 18.5088 142.098 18.1157C142.405 17.7226 142.544 17.1049 142.544 16.3186C142.544 15.5324 142.405 14.9708 142.125 14.5777C141.846 14.1846 141.371 13.9881 140.673 13.9881H139.444V18.7054H140.505Z" fill="white"/>
<path d="M149.109 27.4941C148.326 26.6237 147.907 25.2478 147.852 23.3665L151.064 22.8891C151.064 23.9842 151.204 24.7424 151.455 25.2197C151.706 25.6971 152.07 25.9217 152.544 25.9217C153.187 25.9217 153.494 25.5005 153.494 24.6862C153.494 24.0123 153.354 23.4507 153.047 22.9734C152.74 22.496 152.265 21.9906 151.623 21.429L150.142 20.1374C149.416 19.5196 148.857 18.8738 148.466 18.1718C148.075 17.4698 147.88 16.6556 147.88 15.7009C147.88 14.2688 148.299 13.1737 149.137 12.3875C149.975 11.6013 151.148 11.2363 152.628 11.2363C154.248 11.2363 155.338 11.7136 155.924 12.6402C156.511 13.5949 156.818 14.7181 156.846 16.0659L153.606 16.459C153.578 15.5605 153.494 14.9427 153.354 14.5496C153.215 14.1565 152.935 13.9599 152.489 13.9599C152.153 13.9599 151.93 14.1003 151.734 14.3811C151.567 14.6619 151.483 14.9708 151.483 15.3078C151.483 15.8974 151.623 16.3748 151.874 16.7679C152.125 17.161 152.544 17.6102 153.131 18.1157L154.528 19.3512C155.366 20.0812 156.008 20.8394 156.483 21.6256C156.958 22.4399 157.181 23.3665 157.181 24.4616C157.181 25.2759 156.986 25.9778 156.623 26.6517C156.26 27.2976 155.729 27.8311 155.058 28.1961C154.388 28.5892 153.606 28.7577 152.74 28.7577C151.092 28.8138 149.891 28.3646 149.109 27.4941Z" fill="white"/>
</svg>
