<svg width="38" height="38" viewBox="0 0 38 38" fill="none" xmlns="http://www.w3.org/2000/svg">
<path d="M36.9059 23.0364C39.6578 10.6706 28.8246 -0.563149 16.1025 1.59335C9.196 -2.69273 0 2.15068 0 10.3682C0 12.2793 0.52725 14.0684 1.444 15.6106C-1.11308 28.0049 9.80875 39.0772 22.5198 36.7734C31.5052 41.525 41.4343 32.0488 36.9059 23.0364ZM24.8124 30.4939C21.4748 31.8667 15.9822 31.8746 12.6588 30.1345C7.91983 27.6075 7.0775 21.9186 11.1657 21.9186C14.2468 21.9186 13.2715 25.5112 16.3828 26.9758C17.8109 27.636 20.881 27.7041 22.6654 26.5008C24.4277 25.3212 24.2662 23.4655 23.3083 22.5788C20.7702 20.2355 13.5074 21.1665 10.1872 17.0641C8.74475 15.2844 8.47242 12.1447 10.2458 9.86785C13.3364 5.89051 22.4058 5.64826 26.3055 8.65185C29.906 11.4385 28.9338 15.1372 26.0284 15.1372C22.534 15.1372 24.3707 10.5645 18.7293 10.5645C14.6395 10.5645 13.0308 13.4731 15.9109 14.8886C19.8154 16.8282 29.7651 16.1806 29.7651 23.76C29.7572 26.914 27.8239 29.2653 24.8124 30.4939Z" fill="white"/>
</svg>
