<svg width="40" height="40" viewBox="0 0 40 40" fill="none" xmlns="http://www.w3.org/2000/svg">
<g clip-path="url(#clip0_1867_3847)">
<path d="M38.5918 23.155C39.7851 13.11 38.0185 6.76832 34.8318 3.89998L34.8335 3.89832C29.6901 -1.00002 12.3201 -1.72502 6.1668 4.11832C3.40347 6.97665 2.43013 11.1717 2.32347 16.365C2.2168 21.56 2.09013 31.2917 11.1585 33.9317H11.1668L11.1585 37.9633C11.1585 37.9633 11.0968 39.5967 12.1401 39.925C13.3335 40.3117 13.8735 39.5533 17.5851 35.12C23.7918 35.6583 28.5585 34.425 29.1001 34.245C30.3535 33.825 37.4451 32.8867 38.5918 23.155ZM18.1968 32.2833C18.1968 32.2833 14.2685 37.1817 13.0468 38.4533C12.6468 38.8667 12.2085 38.8283 12.2151 38.0083C12.2151 37.47 12.2451 31.315 12.2451 31.315C4.5568 29.1117 5.01013 20.825 5.09347 16.49C5.1768 12.1533 5.97013 8.60165 8.31013 6.20998C13.7085 1.14831 28.9368 2.27998 32.8168 5.92665C37.5601 10.1317 35.8718 22.0117 35.8818 22.4167C34.9068 30.54 29.1601 31.055 28.1035 31.4067C27.6518 31.5567 23.4601 32.635 18.1968 32.2833Z" fill="white"/>
<path d="M20.3699 7.16168C19.7283 7.16168 19.7283 8.16168 20.3699 8.17002C25.3483 8.20835 29.4483 11.6783 29.4933 18.0434C29.4933 18.715 30.4766 18.7067 30.4683 18.035H30.4666C30.4133 11.1767 25.9366 7.20002 20.3699 7.16168Z" fill="white"/>
<path d="M26.9179 16.9883C26.9029 17.6517 27.8846 17.6833 27.8929 17.0117C27.9746 13.23 25.6429 10.115 21.2612 9.78667C20.6196 9.74 20.5529 10.7483 21.1929 10.795C24.9929 11.0833 26.9946 13.6767 26.9179 16.9883Z" fill="white"/>
<path d="M25.868 21.29C25.0447 20.8133 24.2064 21.11 23.8597 21.5783L23.1347 22.5167C22.7664 22.9933 22.078 22.93 22.078 22.93C17.0547 21.6017 15.7114 16.345 15.7114 16.345C15.7114 16.345 15.6497 15.6333 16.1097 15.2517L17.0164 14.5017C17.4697 14.1417 17.7564 13.275 17.2947 12.4233C16.0614 10.195 15.233 9.42668 14.8114 8.83668C14.368 8.28168 13.7014 8.15668 13.008 8.53168H12.993C11.5514 9.37501 9.97304 10.9533 10.478 12.5783C11.3397 14.2917 12.923 19.7533 17.9697 23.88C20.3414 25.8317 24.0947 27.8317 25.688 28.2933L25.703 28.3167C27.273 28.84 28.7997 27.2 29.6147 25.715V25.7033C29.9764 24.985 29.8564 24.305 29.328 23.86C28.3914 22.9467 26.978 21.9383 25.868 21.29Z" fill="white"/>
<path d="M21.9483 13.5067C23.5499 13.6 24.3266 14.4367 24.4099 16.155C24.4399 16.8267 25.4149 16.78 25.3849 16.1083C25.2783 13.865 24.1083 12.615 22.0016 12.4983C21.3599 12.46 21.2999 13.4683 21.9483 13.5067Z" fill="white"/>
</g>
<defs>
<clipPath id="clip0_1867_3847">
<rect width="40" height="40" fill="white"/>
</clipPath>
</defs>
</svg>
