<svg width="40" height="40" viewBox="0 0 40 40" fill="none" xmlns="http://www.w3.org/2000/svg">
<path fill-rule="evenodd" clip-rule="evenodd" d="M34.0085 5.81299C30.2664 2.06641 25.2896 0.00219726 19.9875 0C9.06226 0 0.170654 8.89136 0.16626 19.8196C0.164795 23.313 1.07739 26.7231 2.81201 29.729L0 40L10.5076 37.2437C13.4028 38.823 16.6624 39.6553 19.9795 39.6562H19.9878C30.9119 39.6562 39.8044 30.7642 39.8086 19.8354C39.8108 14.5391 37.751 9.55933 34.0085 5.81299ZM19.9875 36.3088H19.9807C17.0247 36.3076 14.1255 35.5132 11.5957 34.0125L10.9944 33.6553L4.75903 35.291L6.42334 29.2117L6.03149 28.5884C4.38232 25.9653 3.51147 22.9336 3.51294 19.8208C3.51636 10.7375 10.907 3.34766 19.9941 3.34766C24.3945 3.34912 28.531 5.06494 31.6414 8.17896C34.7517 11.293 36.4636 15.4321 36.4622 19.8342C36.4583 28.9182 29.0681 36.3088 19.9875 36.3088ZM29.0242 23.9702C28.5291 23.7222 26.094 22.5244 25.6399 22.3589C25.1863 22.1936 24.8557 22.1113 24.5259 22.6069C24.1956 23.1025 23.2466 24.2183 22.9575 24.5486C22.6685 24.8792 22.3799 24.9207 21.8845 24.6726C21.3892 24.4248 19.7935 23.9016 17.9016 22.2144C16.4294 20.9011 15.4355 19.2793 15.1465 18.7837C14.8579 18.2876 15.144 18.0454 15.3638 17.7729C15.8999 17.1072 16.4368 16.4092 16.6018 16.0789C16.7671 15.7483 16.6843 15.459 16.5603 15.2112C16.4368 14.9634 15.4463 12.5256 15.0337 11.5337C14.6313 10.5684 14.2234 10.6987 13.9192 10.6836C13.6306 10.6692 13.3003 10.6663 12.97 10.6663C12.6399 10.6663 12.1033 10.79 11.6492 11.2861C11.1953 11.782 9.91602 12.98 9.91602 15.4177C9.91602 17.8555 11.6907 20.2104 11.9382 20.541C12.1858 20.8716 15.4307 25.874 20.3987 28.019C21.5803 28.5298 22.5027 28.8342 23.2222 29.0625C24.4087 29.4395 25.488 29.3862 26.3416 29.2588C27.2932 29.1165 29.2715 28.0605 29.6846 26.9038C30.0972 25.7468 30.0972 24.7554 29.9731 24.5486C29.8496 24.342 29.5193 24.2183 29.0242 23.9702Z" fill="white"/>
</svg>
